#!OML:ASF I:\Actors\actors\Patient Classification 1\Patient 1\Session 1\Subject1.ASF
:FULLY-SPECIFIED
:DEGREES
562
root 1.38004 17.7025 8.11884 13.2861 10.5489 -10.9065
lowerback 10.3871 -0.087447 3.28505
upperback -6.75903 0.545047 0.98426
thorax -13.2682 0.020316 -0.883616
lowerneck -14.6688 4.80744 6.21664
upperneck 32.2568 4.90714 1.28391
head 13.4765 3.10629 0.213918
rclavicle -1.10325e-014 -1.11319e-014
rhumerus -39.7946 9.99893 -87.937
rradius 87.4582
rwrist 6.93334
rhand -18.3086 -39.1059
rfingers 7.12502
rthumb 7.97247 -68.9355
lclavicle -1.10325e-014 -1.11319e-014
lhumerus -25.1918 -77.0061 121.334
lradius 72.6272
lwrist 48.7712
lhand -33.1884 -24.0532
lfingers 7.12502
lthumb -6.39613 5.83026
rfemur -4.63668 23.4602 22.6213
rtibia 2.24933
rfoot -18.8046 -32.6602
rtoes 12.3596
lfemur -9.07967 -26.8304 -9.06922
ltibia 1.51879
lfoot -7.0568 29.7181
ltoes 0.751329
563
root 1.38234 17.7001 8.1094 13.359 10.3442 -10.846
lowerback 10.4224 0.282704 3.32617
upperback -6.78475 1.06029 1.00516
thorax -13.2987 0.260603 -0.995317
lowerneck -14.7214 4.47435 5.83153
upperneck 32.0504 4.51516 1.33005
head 13.3701 2.8952 0.230981
rclavicle -6.95746e-016 9.54166e-015
rhumerus -39.9885 9.65839 -89.3825
rradius 87.7207
rwrist 6.36393
rhand -17.9588 -38.9382
rfingers 7.12502
rthumb 8.3101 -68.7547
lclavicle -6.95746e-016 9.54166e-015
lhumerus -25.7711 -76.8237 121.059
lradius 73.2463
lwrist 48.2059
lhand -32.7732 -24.2417
lfingers 7.12502
lthumb -5.99523 5.65349
rfemur -4.70045 23.7275 22.508
rtibia 2.16023
rfoot -18.9657 -32.844
rtoes 12.6945
lfemur -9.07564 -26.7374 -9.18287
ltibia 1.43424
lfoot -7.04336 29.9039
ltoes 0.85752
564
root 1.38626 17.6987 8.09905 13.4113 10.14 -10.7894
lowerback 10.4706 0.649657 3.35094
upperback -6.82454 1.57191 1.04321
thorax -13.3541 0.501031 -1.07864
lowerneck -14.7457 4.10988 5.42068
upperneck 31.8989 4.0674 1.43784
head 13.2805 2.66557 0.268861
rclavicle -2.98177e-016 1.59028e-015
rhumerus -40.1638 9.32162 -90.5171
rradius 88.1628
rwrist 5.9673
rhand -17.6825 -38.7515
rfingers 7.12502
rthumb 8.57675 -68.5573
lclavicle -2.98177e-016 1.59028e-015
lhumerus -25.7334 -76.6203 120.435
lradius 73.9161
lwrist 47.47
lhand -32.5232 -24.361
lfingers 7.12502
lthumb -5.75392 5.54084
rfemur -4.80048 23.8617 22.3793
rtibia 2.14055
rfoot -18.9638 -32.9319
rtoes 12.7831
lfemur -9.05369 -26.6296 -9.31824
ltibia 1.34861
lfoot -7.01484 30.0702
ltoes 0.91886
565
root 1.3922 17.6978 8.08746 13.4351 9.95727 -10.7563
lowerback 10.5136 0.977733 3.37562
upperback -6.87326 2.03436 1.10812
thorax -13.4202 0.719439 -1.12216
lowerneck -14.7391 3.73153 5.00046
upperneck 31.8104 3.58854 1.59381
head 13.2129 2.42808 0.323577
rclavicle 9.83984e-015 7.95139e-015
rhumerus -40.27 9.11076 -91.3574
rradius 88.6576
rwrist 5.85128
rhand -17.5085 -38.5303
rfingers 7.12502
rthumb 8.74463 -68.3291
lclavicle 9.83984e-015 7.95139e-015
lhumerus -25.0312 -76.3238 119.421
lradius 74.5024
lwrist 46.591
lhand -32.5047 -24.5033
lfingers 7.12502
lthumb -5.73607 5.39909
rfemur -4.95374 23.7787 22.2534
rtibia 2.2164
rfoot -18.7346 -32.8695
rtoes 12.5108
lfemur -9.02153 -26.5325 -9.44895
ltibia 1.27216
lfoot -6.98981 30.219
ltoes 1.00101
566
root 1.4005 17.6967 8.0746 13.4227 9.79403 -10.7675
lowerback 10.5414 1.24304 3.42372
upperback -6.92533 2.4187 1.20242
thorax -13.4855 0.900478 -1.12957
lowerneck -14.708 3.36216 4.59249
upperneck 31.7831 3.10903 1.78317
head 13.1697 2.19634 0.390577
rclavicle -8.15017e-015 -9.54166e-015
rhumerus -40.2803 9.1477 -91.9431
rradius 89.1553
rwrist 5.79119
rhand -17.612 -38.2708
rfingers 7.12502
rthumb 8.6448 -68.0738
lclavicle -8.15017e-015 -9.54166e-015
lhumerus -23.7464 -75.8684 118.063
lradius 74.9626
lwrist 45.5122
lhand -32.7921 -24.6016
lfingers 7.12502
lthumb -6.01348 5.29303
rfemur -5.16995 23.4472 22.1515
rtibia 2.41595
rfoot -18.2992 -32.5999
rtoes 11.9232
lfemur -8.97434 -26.4679 -9.55414
ltibia 1.21055
lfoot -6.98699 30.3738
ltoes 1.15161
567
root 1.4109 17.6951 8.06079 13.3912 9.64385 -10.7793
lowerback 10.5387 1.43011 3.45526
upperback -6.98022 2.69419 1.30852
thorax -13.5416 1.03258 -1.09043
lowerneck -14.6565 3.02564 4.22565
upperneck 31.7958 2.66079 1.9857
head 13.1444 1.98464 0.461606
rclavicle 1.67973e-014 4.77083e-014
rhumerus -40.1874 9.48995 -92.3023
rradius 89.6249
rwrist 5.9995
rhand -17.8026 -37.8509
rfingers 7.12502
rthumb 8.46088 -67.6614
lclavicle 1.67973e-014 4.77083e-014
lhumerus -22.0624 -75.2008 116.473
lradius 75.3121
lwrist 44.1624
lhand -33.3164 -24.7729
lfingers 7.12502
lthumb -6.51967 5.10673
rfemur -5.4564 22.9256 22.0191
rtibia 2.74287
rfoot -17.771 -32.1427
rtoes 11.2081
lfemur -8.93054 -26.4673 -9.67305
ltibia 1.17748
lfoot -7.00655 30.5574
ltoes 1.38841
568
root 1.42314 17.6923 8.04672 13.3531 9.47487 -10.7278
lowerback 10.5087 1.54126 3.41442
upperback -7.03686 2.85095 1.3972
thorax -13.5902 1.11455 -1.00342
lowerneck -14.5896 2.73734 3.91445
upperneck 31.821 2.2661 2.18684
head 13.1263 1.80214 0.531373
rclavicle 4.17448e-015 4.29375e-014
rhumerus -39.984 10.0989 -92.4354
rradius 90.1755
rwrist 6.08838
rhand -17.8588 -37.3668
rfingers 7.12502
rthumb 8.40656 -67.1795
lclavicle 4.17448e-015 4.29375e-014
lhumerus -20.2279 -74.2857 114.807
lradius 75.6144
lwrist 42.4608
lhand -34.0106 -24.9747
lfingers 7.12502
lthumb -7.18984 4.8832
rfemur -5.79248 22.3047 21.7836
rtibia 3.17136
rfoot -17.2312 -31.5498
rtoes 10.4802
lfemur -8.87972 -26.5571 -9.88295
ltibia 1.1746
lfoot -7.0463 30.8042
ltoes 1.70937
569
root 1.4375 17.6879 8.03291 13.2939 9.25869 -10.6346
lowerback 10.4758 1.58977 3.34501
upperback -7.09405 2.91397 1.45753
thorax -13.6414 1.15321 -0.911247
lowerneck -14.5183 2.49809 3.65696
upperneck 31.8416 1.92595 2.38741
head 13.1095 1.64896 0.600343
rclavicle 2.91716e-014 3.4191e-014
rhumerus -39.6717 10.8575 -92.3101
rradius 90.8505
rwrist 6.32288
rhand -17.2601 -36.8372
rfingers 7.12502
rthumb 8.98438 -66.6259
lclavicle 2.91716e-014 3.4191e-014
lhumerus -18.4939 -73.1056 113.222
lradius 75.9499
lwrist 40.3498
lhand -34.7626 -25.128
lfingers 7.12502
lthumb -7.91568 4.70377
rfemur -6.12996 21.6691 21.4849
rtibia 3.66024
rfoot -16.7072 -30.8705
rtoes 9.76324
lfemur -8.78633 -26.6946 -10.1737
ltibia 1.18903
lfoot -7.1042 31.1012
ltoes 2.06395
570
root 1.45393 17.6817 8.02103 13.2179 9.0111 -10.5691
lowerback 10.4151 1.58618 3.33294
upperback -7.15516 2.91198 1.49952
thorax -13.6787 1.15505 -0.856306
lowerneck -14.449 2.29812 3.43771
upperneck 31.8456 1.62776 2.5965
head 13.0891 1.51893 0.672492
rclavicle -1.14301e-015 1.59028e-014
rhumerus -39.2586 11.6744 -91.9226
rradius 91.6533
rwrist 6.7736
rhand -15.867 -36.1824
rfingers 7.12502
rthumb 10.3285 -65.9088
lclavicle -1.14301e-015 1.59028e-014
lhumerus -17.0433 -71.6576 111.832
lradius 76.3857
lwrist 37.7941
lhand -35.4289 -25.1585
lfingers 7.12502
lthumb -8.55871 4.64799
rfemur -6.43337 21.0945 21.2221
rtibia 4.14461
rfoot -16.2194 -30.1852
rtoes 9.08082
lfemur -8.66151 -26.7957 -10.4545
ltibia 1.21333
lfoot -7.16703 31.37
ltoes 2.37348
571
root 1.47219 17.6743 8.01202 13.1196 8.73218 -10.5697
lowerback 10.3222 1.54876 3.42525
upperback -7.21801 2.87754 1.52571
thorax -13.6937 1.13121 -0.869035
lowerneck -14.3826 2.12511 3.24108
upperneck 31.8254 1.35674 2.8201
head 13.0612 1.40452 0.750321
rclavicle -4.82053e-015 2.3059e-014
rhumerus -38.7426 12.4611 -91.2799
rradius 92.5415
rwrist 7.58346
rhand -13.2442 -35.471
rfingers 7.12502
rthumb 12.8578 -65.055
lclavicle -4.82053e-015 2.3059e-014
lhumerus -15.9673 -69.9598 110.677
lradius 76.9639
lwrist 34.7434
lhand -35.8869 -25.0506
lfingers 7.12502
lthumb -9.00064 4.73741
rfemur -6.66216 20.6433 21.0581
rtibia 4.56185
rfoot -15.7582 -29.5721
rtoes 8.39398
lfemur -8.49316 -26.823 -10.6783
ltibia 1.2357
lfoot -7.2397 31.5854
ltoes 2.63034
